<?xml version="1.0" standalone="no"?>
<!DOCTYPE svg PUBLIC "-//W3C//DTD SVG 20010904//EN"
 "http://www.w3.org/TR/2001/REC-SVG-20010904/DTD/svg10.dtd">
<svg version="1.0" xmlns="http://www.w3.org/2000/svg"
 width="64.000000pt" height="64.000000pt" viewBox="0 0 64.000000 64.000000"
 preserveAspectRatio="xMidYMid meet">
<metadata>
Created by potrace 1.16, written by Peter Selinger 2001-2019
</metadata>
<g transform="translate(0.000000,64.000000) scale(0.100000,-0.100000)"
fill="#000000" stroke="none">
<path d="M288 629 c-12 -6 -18 -22 -18 -44 0 -28 4 -35 20 -35 15 0 20 7 20
25 0 14 5 25 10 25 6 0 10 -75 10 -206 l0 -206 30 -28 c36 -34 38 -63 5 -95
-31 -32 -59 -32 -90 0 -33 32 -31 61 5 95 27 25 30 34 30 89 0 54 -2 61 -20
61 -17 0 -20 -7 -20 -47 0 -38 -5 -53 -27 -76 -23 -23 -28 -37 -28 -77 0 -41
5 -54 28 -77 23 -23 36 -28 77 -28 41 0 54 5 77 28 23 23 28 36 28 77 0 40 -5
54 -27 77 l-28 29 0 196 c0 165 -2 199 -16 212 -18 18 -41 20 -66 5z"/>
</g>
</svg>
